<svg width="181" height="108" viewBox="0 0 181 108" fill="none" xmlns="http://www.w3.org/2000/svg">
<path d="M12.64 44.28C10.5867 44.28 8.74667 43.9467 7.12 43.28C5.49333 42.6133 4.18667 41.6267 3.2 40.32C2.24 39.0133 1.73333 37.44 1.68 35.6H8.96C9.06667 36.64 9.42667 37.44 10.04 38C10.6533 38.5333 11.4533 38.8 12.44 38.8C13.4533 38.8 14.2533 38.5733 14.84 38.12C15.4267 37.64 15.72 36.9867 15.72 36.16C15.72 35.4667 15.48 34.8933 15 34.44C14.5467 33.9867 13.9733 33.6133 13.28 33.32C12.6133 33.0267 11.6533 32.6933 10.4 32.32C8.58667 31.76 7.10667 31.2 5.96 30.64C4.81333 30.08 3.82667 29.2533 3 28.16C2.17333 27.0667 1.76 25.64 1.76 23.88C1.76 21.2667 2.70667 19.2267 4.6 17.76C6.49333 16.2667 8.96 15.52 12 15.52C15.0933 15.52 17.5867 16.2667 19.48 17.76C21.3733 19.2267 22.3867 21.28 22.52 23.92H15.12C15.0667 23.0133 14.7333 22.3067 14.12 21.8C13.5067 21.2667 12.72 21 11.76 21C10.9333 21 10.2667 21.2267 9.76 21.68C9.25333 22.1067 9 22.7333 9 23.56C9 24.4667 9.42667 25.1733 10.28 25.68C11.1333 26.1867 12.4667 26.7333 14.28 27.32C16.0933 27.9333 17.56 28.52 18.68 29.08C19.8267 29.64 20.8133 30.4533 21.64 31.52C22.4667 32.5867 22.88 33.96 22.88 35.64C22.88 37.24 22.4667 38.6933 21.64 40C20.84 41.3067 19.6667 42.3467 18.12 43.12C16.5733 43.8933 14.7467 44.28 12.64 44.28ZM25.7294 32.84C25.7294 30.52 26.196 28.4933 27.1294 26.76C28.0894 25.0267 29.4094 23.6933 31.0894 22.76C32.796 21.8267 34.7427 21.36 36.9294 21.36C39.7294 21.36 42.0627 22.0933 43.9294 23.56C45.8227 25.0267 47.0627 27.0933 47.6494 29.76H40.3694C39.756 28.0533 38.5694 27.2 36.8094 27.2C35.556 27.2 34.556 27.6933 33.8094 28.68C33.0627 29.64 32.6894 31.0267 32.6894 32.84C32.6894 34.6533 33.0627 36.0533 33.8094 37.04C34.556 38 35.556 38.48 36.8094 38.48C38.5694 38.48 39.756 37.6267 40.3694 35.92H47.6494C47.0627 38.5333 45.8227 40.5867 43.9294 42.08C42.036 43.5733 39.7027 44.32 36.9294 44.32C34.7427 44.32 32.796 43.8533 31.0894 42.92C29.4094 41.9867 28.0894 40.6533 27.1294 38.92C26.196 37.1867 25.7294 35.16 25.7294 32.84ZM54.7481 19.36C53.5481 19.36 52.5615 19.0133 51.7881 18.32C51.0415 17.6 50.6681 16.72 50.6681 15.68C50.6681 14.6133 51.0415 13.7333 51.7881 13.04C52.5615 12.32 53.5481 11.96 54.7481 11.96C55.9215 11.96 56.8815 12.32 57.6281 13.04C58.4015 13.7333 58.7881 14.6133 58.7881 15.68C58.7881 16.72 58.4015 17.6 57.6281 18.32C56.8815 19.0133 55.9215 19.36 54.7481 19.36ZM58.1481 21.68V44H51.3081V21.68H58.1481ZM84.145 32.48C84.145 33.12 84.105 33.7867 84.025 34.48H68.545C68.6517 35.8667 69.0917 36.9333 69.865 37.68C70.665 38.4 71.6383 38.76 72.785 38.76C74.4917 38.76 75.6783 38.04 76.345 36.6H83.625C83.2517 38.0667 82.5717 39.3867 81.585 40.56C80.625 41.7333 79.4117 42.6533 77.945 43.32C76.4783 43.9867 74.8383 44.32 73.025 44.32C70.8383 44.32 68.8917 43.8533 67.185 42.92C65.4783 41.9867 64.145 40.6533 63.185 38.92C62.225 37.1867 61.745 35.16 61.745 32.84C61.745 30.52 62.2117 28.4933 63.145 26.76C64.105 25.0267 65.4383 23.6933 67.145 22.76C68.8517 21.8267 70.8117 21.36 73.025 21.36C75.185 21.36 77.105 21.8133 78.785 22.72C80.465 23.6267 81.7717 24.92 82.705 26.6C83.665 28.28 84.145 30.24 84.145 32.48ZM77.145 30.68C77.145 29.5067 76.745 28.5733 75.945 27.88C75.145 27.1867 74.145 26.84 72.945 26.84C71.7983 26.84 70.825 27.1733 70.025 27.84C69.2517 28.5067 68.7717 29.4533 68.585 30.68H77.145ZM101.353 21.44C103.967 21.44 106.047 22.2933 107.593 24C109.167 25.68 109.953 28 109.953 30.96V44H103.153V31.88C103.153 30.3867 102.767 29.2267 101.993 28.4C101.22 27.5733 100.18 27.16 98.8734 27.16C97.5668 27.16 96.5268 27.5733 95.7534 28.4C94.9801 29.2267 94.5934 30.3867 94.5934 31.88V44H87.7534V21.68H94.5934V24.64C95.2868 23.6533 96.2201 22.88 97.3934 22.32C98.5668 21.7333 99.8868 21.44 101.353 21.44ZM113.347 32.84C113.347 30.52 113.813 28.4933 114.747 26.76C115.707 25.0267 117.027 23.6933 118.707 22.76C120.413 21.8267 122.36 21.36 124.547 21.36C127.347 21.36 129.68 22.0933 131.547 23.56C133.44 25.0267 134.68 27.0933 135.267 29.76H127.987C127.373 28.0533 126.187 27.2 124.427 27.2C123.173 27.2 122.173 27.6933 121.427 28.68C120.68 29.64 120.307 31.0267 120.307 32.84C120.307 34.6533 120.68 36.0533 121.427 37.04C122.173 38 123.173 38.48 124.427 38.48C126.187 38.48 127.373 37.6267 127.987 35.92H135.267C134.68 38.5333 133.44 40.5867 131.547 42.08C129.653 43.5733 127.32 44.32 124.547 44.32C122.36 44.32 120.413 43.8533 118.707 42.92C117.027 41.9867 115.707 40.6533 114.747 38.92C113.813 37.1867 113.347 35.16 113.347 32.84ZM159.965 32.48C159.965 33.12 159.925 33.7867 159.845 34.48H144.365C144.472 35.8667 144.912 36.9333 145.685 37.68C146.485 38.4 147.459 38.76 148.605 38.76C150.312 38.76 151.499 38.04 152.165 36.6H159.445C159.072 38.0667 158.392 39.3867 157.405 40.56C156.445 41.7333 155.232 42.6533 153.765 43.32C152.299 43.9867 150.659 44.32 148.845 44.32C146.659 44.32 144.712 43.8533 143.005 42.92C141.299 41.9867 139.965 40.6533 139.005 38.92C138.045 37.1867 137.565 35.16 137.565 32.84C137.565 30.52 138.032 28.4933 138.965 26.76C139.925 25.0267 141.259 23.6933 142.965 22.76C144.672 21.8267 146.632 21.36 148.845 21.36C151.005 21.36 152.925 21.8133 154.605 22.72C156.285 23.6267 157.592 24.92 158.525 26.6C159.485 28.28 159.965 30.24 159.965 32.48ZM152.965 30.68C152.965 29.5067 152.565 28.5733 151.765 27.88C150.965 27.1867 149.965 26.84 148.765 26.84C147.619 26.84 146.645 27.1733 145.845 27.84C145.072 28.5067 144.592 29.4533 144.405 30.68H152.965Z" fill="#0094C6"/>
<path d="M103.68 63.92V69.4H96.24V92H89.4V69.4H81.96V63.92H103.68ZM128.153 80.48C128.153 81.12 128.113 81.7867 128.033 82.48H112.553C112.659 83.8667 113.099 84.9333 113.873 85.68C114.673 86.4 115.646 86.76 116.793 86.76C118.499 86.76 119.686 86.04 120.353 84.6H127.633C127.259 86.0667 126.579 87.3867 125.593 88.56C124.633 89.7333 123.419 90.6533 121.953 91.32C120.486 91.9867 118.846 92.32 117.033 92.32C114.846 92.32 112.899 91.8533 111.193 90.92C109.486 89.9867 108.153 88.6533 107.193 86.92C106.233 85.1867 105.753 83.16 105.753 80.84C105.753 78.52 106.219 76.4933 107.153 74.76C108.113 73.0267 109.446 71.6933 111.153 70.76C112.859 69.8267 114.819 69.36 117.033 69.36C119.193 69.36 121.113 69.8133 122.793 70.72C124.473 71.6267 125.779 72.92 126.713 74.6C127.673 76.28 128.153 78.24 128.153 80.48ZM121.153 78.68C121.153 77.5067 120.753 76.5733 119.953 75.88C119.153 75.1867 118.153 74.84 116.953 74.84C115.806 74.84 114.833 75.1733 114.033 75.84C113.259 76.5067 112.779 77.4533 112.593 78.68H121.153ZM130.401 80.84C130.401 78.52 130.868 76.4933 131.801 74.76C132.761 73.0267 134.081 71.6933 135.761 70.76C137.468 69.8267 139.415 69.36 141.601 69.36C144.401 69.36 146.735 70.0933 148.601 71.56C150.495 73.0267 151.735 75.0933 152.321 77.76H145.041C144.428 76.0533 143.241 75.2 141.481 75.2C140.228 75.2 139.228 75.6933 138.481 76.68C137.735 77.64 137.361 79.0267 137.361 80.84C137.361 82.6533 137.735 84.0533 138.481 85.04C139.228 86 140.228 86.48 141.481 86.48C143.241 86.48 144.428 85.6267 145.041 83.92H152.321C151.735 86.5333 150.495 88.5867 148.601 90.08C146.708 91.5733 144.375 92.32 141.601 92.32C139.415 92.32 137.468 91.8533 135.761 90.92C134.081 89.9867 132.761 88.6533 131.801 86.92C130.868 85.1867 130.401 83.16 130.401 80.84ZM169.7 69.44C172.26 69.44 174.313 70.2933 175.86 72C177.407 73.68 178.18 76 178.18 78.96V92H171.38V79.88C171.38 78.3867 170.993 77.2267 170.22 76.4C169.447 75.5733 168.407 75.16 167.1 75.16C165.793 75.16 164.753 75.5733 163.98 76.4C163.207 77.2267 162.82 78.3867 162.82 79.88V92H155.98V62.4H162.82V72.68C163.513 71.6933 164.46 70.9067 165.66 70.32C166.86 69.7333 168.207 69.44 169.7 69.44Z" fill="#0094C6"/>
</svg>
