<svg width="33" height="33" viewBox="0 0 33 33" fill="none" xmlns="http://www.w3.org/2000/svg">
<path d="M2.75 16.5C2.75 24.0941 8.90588 30.25 16.5 30.25C24.0941 30.25 30.25 24.0941 30.25 16.5C30.25 8.90588 24.0941 2.75 16.5 2.75C8.90588 2.75 2.75 8.90588 2.75 16.5Z" stroke="white" stroke-width="1.5" stroke-linecap="round" stroke-linejoin="round"/>
<path d="M17.875 2.81885C17.875 2.81885 22 8.2501 22 16.5001C22 24.7501 17.875 30.1813 17.875 30.1813M15.125 30.1813C15.125 30.1813 11 24.7501 11 16.5001C11 8.2501 15.125 2.81885 15.125 2.81885M3.61621 21.3126H29.3837M3.61621 11.6876H29.3837" stroke="white" stroke-width="1.5" stroke-linecap="round" stroke-linejoin="round"/>
</svg>
