<svg width="18" height="21" viewBox="0 0 18 21" fill="none" xmlns="http://www.w3.org/2000/svg">
<path d="M8.72885 1.61967C9.02833 0.873738 9.86261 0.0704307 10.9336 0.370237C11.775 0.605491 12.3212 1.11617 12.635 1.79898C12.9259 2.43445 12.9972 3.18325 13.0115 3.89618C13.0258 4.66363 12.866 5.58313 12.6792 6.38931C12.5958 6.74554 12.5031 7.0995 12.4011 7.45082H14.3763C14.8194 7.45085 15.2565 7.55474 15.6528 7.75427C16.0491 7.95379 16.3937 8.24345 16.6593 8.60027C16.9249 8.95709 17.1042 9.37126 17.183 9.80992C17.2617 10.2486 17.2378 10.6997 17.113 11.1274L15.1678 17.792C15.0343 18.2493 14.8116 18.6753 14.5125 19.0451C14.2135 19.4148 13.8442 19.7209 13.4262 19.9454C13.0082 20.1699 12.5499 20.3084 12.0781 20.3526C11.6063 20.3969 11.1304 20.3462 10.6784 20.2033L3.04005 17.7905C2.62682 17.66 2.24858 17.4365 1.93403 17.137C1.61947 16.8375 1.37686 16.4699 1.22459 16.062L0.483011 14.0767C0.247005 13.4448 0.240027 12.7495 0.463305 12.113C0.686583 11.4765 1.12582 10.9396 1.70377 10.5966L4.37347 9.01297C4.64249 8.79895 4.8921 8.56133 5.11933 8.3029C5.60992 7.74489 6.28447 6.81678 6.96188 5.36939C7.25424 4.74396 7.49953 4.25194 7.722 3.80581C8.08281 3.08427 8.38515 2.48035 8.72885 1.61967ZM5.14072 10.2222C5.13273 10.2272 5.12465 10.232 5.11648 10.2366L2.42824 11.8317C2.13926 12.0032 1.91965 12.2717 1.80801 12.5899C1.69637 12.9082 1.69986 13.2558 1.81786 13.5717L2.55944 15.5571C2.63556 15.7612 2.75693 15.9452 2.91435 16.0951C3.07176 16.245 3.26107 16.3568 3.46788 16.422L11.1033 18.8348C11.3746 18.9208 11.6603 18.9515 11.9435 18.9251C12.2267 18.8987 12.5019 18.8158 12.7529 18.6812C13.0039 18.5465 13.2256 18.3629 13.4052 18.141C13.5848 17.9191 13.7186 17.6634 13.7987 17.3889L15.7425 10.7243C15.805 10.5103 15.8171 10.2846 15.7777 10.0652C15.7384 9.84569 15.6487 9.63847 15.5158 9.45995C15.3829 9.28144 15.2105 9.13655 15.0122 9.03679C14.8139 8.93704 14.5952 8.88517 14.3734 8.8853H11.4271C11.313 8.88523 11.2006 8.85764 11.0993 8.80482C10.998 8.75201 10.9108 8.67552 10.845 8.58179C10.7792 8.48805 10.7367 8.3798 10.7211 8.26612C10.7055 8.15245 10.7173 8.03667 10.7554 7.9285C10.898 7.52398 11.1147 6.82252 11.2916 6.06081C11.4713 5.28906 11.5982 4.50871 11.5868 3.92344C11.5725 3.2521 11.5027 2.75291 11.3401 2.40002C11.2003 2.09161 10.9821 1.87214 10.5529 1.75164C10.4915 1.73443 10.4188 1.74016 10.3247 1.80185C10.2018 1.89009 10.1075 2.01285 10.0537 2.15473C9.72521 2.96008 9.36119 3.7503 8.96273 4.52305C8.74168 4.96631 8.50922 5.43251 8.25395 5.97905C7.52092 7.54837 6.77078 8.59267 6.18607 9.25396C5.89514 9.58389 5.647 9.81771 5.46445 9.97407C5.37174 10.0533 5.27563 10.1285 5.17638 10.1993L5.15356 10.2136L5.14643 10.2194L5.14215 10.2222H5.14072ZM4.36634 9.01727L4.36491 9.01871L4.36634 9.01727Z" fill="white"/>
</svg>
