<svg width="21" height="20" viewBox="0 0 21 20" fill="none" xmlns="http://www.w3.org/2000/svg">
<path d="M20.9369 18.5624L14.1198 12.0699C15.1777 10.7675 15.7499 9.17496 15.7499 7.49997C15.7499 5.49498 14.9283 3.61498 13.4426 2.19749C11.9568 0.779996 9.97758 0 7.87497 0C5.77235 0 3.79311 0.782497 2.30736 2.19749C0.818996 3.61248 0 5.49498 0 7.49997C0 9.50246 0.821621 11.3875 2.30736 12.8024C3.79311 14.2199 5.76972 14.9999 7.87497 14.9999C9.63371 14.9999 11.3032 14.4549 12.6708 13.4499L19.4879 19.9399C19.5079 19.959 19.5316 19.9741 19.5578 19.9844C19.5839 19.9947 19.6119 20 19.6402 20C19.6684 20 19.6964 19.9947 19.7226 19.9844C19.7487 19.9741 19.7724 19.959 19.7924 19.9399L20.9369 18.8524C20.9569 18.8334 20.9728 18.8108 20.9836 18.7859C20.9944 18.761 21 18.7344 21 18.7074C21 18.6805 20.9944 18.6538 20.9836 18.6289C20.9728 18.6041 20.9569 18.5815 20.9369 18.5624ZM12.0329 11.46C10.92 12.5174 9.44471 13.0999 7.87497 13.0999C6.30522 13.0999 4.82998 12.5174 3.71698 11.46C2.60661 10.4 1.99499 8.99496 1.99499 7.49997C1.99499 6.00497 2.60661 4.59748 3.71698 3.53998C4.82998 2.48249 6.30522 1.89999 7.87497 1.89999C9.44471 1.89999 10.9226 2.47999 12.0329 3.53998C13.1433 4.59998 13.7549 6.00497 13.7549 7.49997C13.7549 8.99496 13.1433 10.4025 12.0329 11.46Z" fill="white"/>
</svg>
