<svg width="39" height="38" viewBox="0 0 39 38" fill="none" xmlns="http://www.w3.org/2000/svg">
<g filter="url(#filter0_d_39_121)">
<circle cx="19.4286" cy="15" r="15" fill="white"/>
<path d="M19.4395 5.42871C14.7196 5.42871 10.8773 9.26732 10.8756 13.9867C10.8747 15.4953 11.2699 16.9681 12.0191 18.2658L10.8572 22.5716L15.3425 21.5119C16.5932 22.1941 18.0012 22.5523 19.4345 22.5532H19.4378C24.1568 22.5532 27.9975 18.7137 28 13.9951C28.0017 11.7074 27.1121 9.55648 25.4953 7.9382C23.8786 6.32077 21.73 5.42957 19.4395 5.42871ZM19.4378 7.143C21.2688 7.14385 22.9896 7.85768 24.2832 9.15025C25.5767 10.4445 26.2873 12.1643 26.2856 13.9934C26.2839 17.7683 23.2131 20.8389 19.4361 20.8389C18.2935 20.838 17.1616 20.5511 16.1646 20.0068L15.587 19.6921L14.9491 19.8428L13.2614 20.2412L13.6733 18.7111L13.8591 18.0247L13.5042 17.4086C12.9059 16.3732 12.5892 15.1893 12.59 13.9867C12.5918 10.2136 15.6634 7.143 19.4378 7.143ZM16.4091 10.0359C16.2659 10.0359 16.0344 10.0894 15.8381 10.3037C15.6418 10.5171 15.0881 11.0341 15.0881 12.0866C15.0881 13.1392 15.8549 14.1567 15.962 14.2998C16.0683 14.4421 17.4422 16.6703 19.617 17.5275C21.424 18.2398 21.791 18.0992 22.1836 18.0632C22.5762 18.0281 23.4502 17.5467 23.6285 17.047C23.8068 16.5473 23.8072 16.1174 23.7541 16.0292C23.7009 15.94 23.5582 15.8869 23.3439 15.7797C23.1304 15.6726 22.0786 15.1561 21.8822 15.085C21.6859 15.0138 21.5424 14.9778 21.4001 15.1921C21.2578 15.4064 20.8488 15.8869 20.7237 16.0292C20.5985 16.1723 20.4742 16.1915 20.2599 16.0844C20.0456 15.9764 19.3565 15.7499 18.5387 15.0213C17.9027 14.4548 17.4735 13.7557 17.3483 13.5414C17.224 13.328 17.3366 13.2108 17.4438 13.1045C17.5398 13.0085 17.6564 12.8546 17.7635 12.7295C17.8698 12.6043 17.9067 12.5152 17.9778 12.3729C18.049 12.2306 18.0126 12.105 17.9594 11.9979C17.9063 11.8908 17.4901 10.8343 17.2998 10.4109C17.1395 10.0551 16.9702 10.0469 16.8176 10.0409C16.6933 10.0357 16.5514 10.0359 16.4091 10.0359Z" fill="#0094C6"/>
</g>
<defs>
<filter id="filter0_d_39_121" x="0.428589" y="0" width="38" height="38" filterUnits="userSpaceOnUse" color-interpolation-filters="sRGB">
<feFlood flood-opacity="0" result="BackgroundImageFix"/>
<feColorMatrix in="SourceAlpha" type="matrix" values="0 0 0 0 0 0 0 0 0 0 0 0 0 0 0 0 0 0 127 0" result="hardAlpha"/>
<feOffset dy="4"/>
<feGaussianBlur stdDeviation="2"/>
<feComposite in2="hardAlpha" operator="out"/>
<feColorMatrix type="matrix" values="0 0 0 0 0 0 0 0 0 0 0 0 0 0 0 0 0 0 0.25 0"/>
<feBlend mode="normal" in2="BackgroundImageFix" result="effect1_dropShadow_39_121"/>
<feBlend mode="normal" in="SourceGraphic" in2="effect1_dropShadow_39_121" result="shape"/>
</filter>
</defs>
</svg>
